<svg width="96" height="96" viewBox="0 0 96 96" fill="none" xmlns="http://www.w3.org/2000/svg">
<circle cx="48.4004" cy="48.2695" r="47.5" fill="#FEFAEC"/>
<path d="M62.1938 70.1443C60.4895 70.1511 58.8284 69.6076 57.4568 68.5944C56.0853 67.5811 55.0765 66.1521 54.58 64.5193C54.4972 64.243 54.5274 63.9452 54.664 63.6912C54.8005 63.4373 55.0322 63.248 55.3081 63.1651C55.5839 63.0823 55.8814 63.1125 56.135 63.2493C56.3885 63.386 56.5775 63.618 56.6603 63.8943C56.9157 64.6986 57.3407 65.4386 57.9063 66.0642C58.472 66.6899 59.1652 67.1866 59.9391 67.5209C60.7129 67.8551 61.5494 68.019 62.392 68.0016C63.2346 67.9842 64.0637 67.7858 64.8231 67.4198C65.5825 67.0538 66.2546 66.5288 66.794 65.8803C67.3334 65.2318 67.7274 64.4749 67.9495 63.6607C68.1716 62.8465 68.2165 61.9941 68.0813 61.161C67.9461 60.3279 67.6338 59.5336 67.1656 58.8318C67.048 58.6058 67.0171 58.3444 67.079 58.0971C67.1409 57.8498 67.2911 57.6338 67.5014 57.4901C67.7116 57.3463 67.9671 57.2847 68.2196 57.317C68.4721 57.3492 68.704 57.4731 68.8715 57.6651C69.7641 58.9936 70.2287 60.5641 70.2028 62.1651C70.2001 63.2157 69.9908 64.2555 69.5868 65.225C69.1828 66.1946 68.5921 67.075 67.8484 67.8159C67.1047 68.5568 66.2226 69.1438 65.2523 69.5433C64.2821 69.9428 63.2428 70.147 62.1938 70.1443Z" fill="#4F4F4F"/>
<path d="M34.6309 70.1463C32.5159 70.1463 30.4872 69.3063 28.9897 67.8105C27.4922 66.3147 26.6482 64.2852 26.6427 62.1671C26.6377 61.1984 26.8141 60.2374 27.1627 59.3338C27.2024 59.1885 27.2737 59.0537 27.3714 58.9393C27.4692 58.8248 27.5911 58.7334 27.7283 58.6717C27.8655 58.61 28.0146 58.5794 28.165 58.5822C28.3154 58.585 28.4633 58.6211 28.5981 58.6879C28.7271 58.7364 28.8452 58.8101 28.9455 58.9046C29.0458 58.9992 29.1263 59.1127 29.1824 59.2387C29.2386 59.3647 29.2691 59.5006 29.2724 59.6385C29.2757 59.7764 29.2515 59.9136 29.2014 60.0421C28.9046 60.7992 28.7668 61.6095 28.7967 62.4223C28.8266 63.2351 29.0235 64.033 29.3751 64.7662C29.7268 65.4994 30.2256 66.1521 30.8404 66.6836C31.4553 67.215 32.1729 67.6138 32.9486 67.855C33.7242 68.0963 34.5412 68.1747 35.3485 68.0855C36.1557 67.9964 36.936 67.7414 37.6405 67.3367C38.345 66.932 38.9586 66.3861 39.4429 65.7332C39.9273 65.0803 40.2721 64.3344 40.4557 63.5421C40.4846 63.4086 40.5405 63.2825 40.62 63.1715C40.6995 63.0605 40.8008 62.967 40.9178 62.8967C41.0347 62.8264 41.1648 62.7809 41.3 62.7629C41.4352 62.7449 41.5726 62.7548 41.7039 62.7921C41.971 62.8564 42.2019 63.024 42.3461 63.2582C42.4903 63.4924 42.5361 63.7742 42.4736 64.0421C42.0463 65.7968 41.0387 67.355 39.6147 68.4633C38.1908 69.5716 36.4343 70.1648 34.6309 70.1463Z" fill="#4F4F4F"/>
<path d="M56.1834 36.8945C56.3291 37.332 56.4747 37.7487 56.5787 38.1862C57.4492 41.8331 57.7232 45.5973 57.39 49.332C56.9739 53.0612 51.5652 56.1445 47.8416 56.3529C47.265 56.438 46.6768 56.3202 46.1773 56.0195C45.6288 55.6175 45.2076 55.0658 44.9641 54.4303C44.7206 53.7948 44.6652 53.1025 44.8044 52.4362C45.0766 51.523 45.5614 50.6876 46.2189 49.9987L46.9886 49.2487C47.1916 49.0503 47.3475 48.8087 47.4447 48.5419C47.5419 48.275 47.578 47.9897 47.5503 47.707C47.4898 47.2819 47.2771 46.8933 46.9518 46.6135C46.6265 46.3338 46.2108 46.1819 45.7821 46.1862H38.6051C30.1176 46.1862 27.5381 55.8945 27.5381 60.7695H32.3851L39.8533 64.9362H53.1879L64.8166 54.1654C64.4213 50.3112 63.194 42.5195 59.4911 37.707L56.1834 36.8945Z" fill="white"/>
<path d="M32.3837 60.7682L39.8519 64.9349H53.1864L63.7958 55.1016C62.4569 49.3374 60.0661 43.8707 56.7437 38.9766L57.2014 41.5182C57.5567 44.142 57.6194 46.7972 57.3886 49.4349C57.3291 49.8636 57.2173 50.2834 57.0557 50.6849C57.0688 51.3875 56.9848 52.0886 56.8061 52.7682C56.0969 54.4076 54.9848 55.8405 53.5734 56.9334C52.1621 58.0262 50.4974 58.7434 48.7346 59.0182C47.8027 59.1558 46.8522 59.0919 45.9471 58.8307C44.7197 58.2266 44.3245 57.6849 44.5949 56.3307C44.7204 55.8262 44.9315 55.347 45.219 54.9141C44.7841 54.1658 44.6362 53.2845 44.8029 52.4349C45.0515 51.6664 45.4551 50.9573 45.9887 50.3516C45.8437 50.3318 45.6968 50.3318 45.5518 50.3516H38.5205C32.0509 50.3516 29.0969 56.1224 28.1191 60.9141L32.3837 60.7682Z" fill="#F4A266"/>
<path d="M45.9478 28.9388C46.729 28.9388 47.3624 28.3045 47.3624 27.5221C47.3624 26.7397 46.729 26.1055 45.9478 26.1055C45.1665 26.1055 44.5332 26.7397 44.5332 27.5221C44.5332 28.3045 45.1665 28.9388 45.9478 28.9388Z" fill="#F85474"/>
<path d="M45.9478 28.9388C46.729 28.9388 47.3624 28.3045 47.3624 27.5221C47.3624 26.7397 46.729 26.1055 45.9478 26.1055C45.1665 26.1055 44.5332 26.7397 44.5332 27.5221C44.5332 28.3045 45.1665 28.9388 45.9478 28.9388Z" fill="#ED5A6B"/>
<path d="M71.1805 40.4764C70.9711 40.4735 70.7706 40.3916 70.6188 40.2472L68.1225 37.8514C67.9802 37.7071 67.9004 37.5125 67.9004 37.3097C67.9004 37.1069 67.9802 36.9123 68.1225 36.768C68.1942 36.6943 68.2799 36.6358 68.3746 36.5958C68.4693 36.5558 68.571 36.5352 68.6737 36.5352C68.7765 36.5352 68.8782 36.5558 68.9729 36.5958C69.0676 36.6358 69.1533 36.6943 69.225 36.768L71.6797 39.2264C71.7533 39.2982 71.8118 39.384 71.8518 39.4789C71.8917 39.5737 71.9123 39.6755 71.9123 39.7785C71.9123 39.8814 71.8917 39.9832 71.8518 40.0781C71.8118 40.1729 71.7533 40.2587 71.6797 40.3305C71.5345 40.4342 71.3585 40.4855 71.1805 40.4764Z" fill="#ED5A6B"/>
<path d="M68.7058 40.4777C68.5982 40.4812 68.4911 40.4627 68.3909 40.4233C68.2908 40.3839 68.1997 40.3244 68.1233 40.2485C67.9844 40.0983 67.9072 39.9011 67.9072 39.6964C67.9072 39.4917 67.9844 39.2945 68.1233 39.1443L70.6196 36.686C70.6913 36.6123 70.7771 36.5537 70.8717 36.5137C70.9664 36.4737 71.0681 36.4531 71.1709 36.4531C71.2736 36.4531 71.3754 36.4737 71.47 36.5137C71.5647 36.5537 71.6504 36.6123 71.7222 36.686C71.7952 36.756 71.8532 36.8401 71.8929 36.9332C71.9326 37.0263 71.9531 37.1265 71.9531 37.2277C71.9531 37.3289 71.9326 37.4291 71.8929 37.5222C71.8532 37.6153 71.7952 37.6993 71.7222 37.7693L69.2674 40.2485C69.1168 40.3947 68.9155 40.4769 68.7058 40.4777Z" fill="#ED5A6B"/>
<path d="M53.5613 34.6848C53.4443 34.7047 53.3247 34.7047 53.2077 34.6848L48.2358 32.9557C47.96 32.8673 47.7305 32.6727 47.5978 32.4149C47.4652 32.157 47.4402 31.8569 47.5285 31.5807C47.6168 31.3044 47.811 31.0746 48.0685 30.9417C48.326 30.8089 48.6256 30.7839 48.9015 30.8723L53.8942 32.6223C54.17 32.6666 54.417 32.8187 54.5809 33.0453C54.7447 33.2719 54.812 33.5544 54.7679 33.8307C54.7237 34.1069 54.5718 34.3543 54.3455 34.5184C54.1193 34.6825 53.8372 34.7499 53.5613 34.7057V34.6848Z" fill="#4F4F4F"/>
<path d="M53.1867 65.8729H39.8521C39.6779 65.8738 39.5062 65.8308 39.3529 65.7479L32.1343 61.7895H27.5369C27.2682 61.7842 27.012 61.675 26.822 61.4847C26.632 61.2944 26.5229 61.0378 26.5176 60.7687C26.5176 54.727 29.8044 45.1645 38.6248 45.1645H45.8017C46.3674 45.1508 46.9236 45.311 47.3955 45.6237C47.8674 45.9364 48.2322 46.3864 48.4408 46.9132C48.6494 47.4399 48.6917 48.018 48.562 48.5696C48.4323 49.1212 48.1369 49.6197 47.7156 49.9979L46.9667 50.7479C46.4556 51.296 46.072 51.9505 45.8433 52.6645C45.7521 53.1405 45.7952 53.6325 45.968 54.0852C46.1407 54.5379 46.4361 54.9333 46.821 55.227C47.1326 55.3455 47.4693 55.3814 47.7988 55.3312C51.3144 55.1229 56.1199 52.227 56.3695 49.2479C56.7117 45.6349 56.4658 41.9902 55.6414 38.4562C55.5386 38.0469 55.4136 37.6436 55.2669 37.2479C55.2076 37.1163 55.1762 36.9738 55.1748 36.8294C55.1733 36.685 55.2019 36.5419 55.2586 36.4091C55.3153 36.2764 55.399 36.1569 55.5043 36.0583C55.6096 35.9596 55.7343 35.884 55.8703 35.8362C56.0063 35.7883 56.1508 35.7693 56.2946 35.7804C56.4384 35.7915 56.5783 35.8324 56.7054 35.9005C56.8325 35.9686 56.9442 36.0624 57.0332 36.176C57.1222 36.2896 57.1866 36.4205 57.2224 36.5604C57.3888 36.9979 57.5344 37.4562 57.6593 37.9145C58.5529 41.6922 58.827 45.5904 58.4706 49.4562C57.9921 53.9562 51.9177 57.1645 48.0692 57.3937C47.2462 57.5001 46.4123 57.308 45.7185 56.852C45.018 56.3316 44.4798 55.6224 44.1667 54.8071C43.8536 53.9919 43.7786 53.1043 43.9503 52.2479C44.2574 51.1199 44.8441 50.088 45.6561 49.2479L46.4258 48.4979C46.5139 48.4155 46.5835 48.3153 46.6301 48.204C46.6768 48.0927 46.6993 47.9727 46.6962 47.852C46.6626 47.6773 46.5697 47.5196 46.4332 47.4057C46.2967 47.2918 46.125 47.2286 45.9473 47.227H38.604C31.1358 47.227 28.9515 55.5604 28.6187 59.727H32.3839C32.5584 59.7243 32.7306 59.7674 32.8832 59.852L40.1226 63.8104H53.1867C53.4609 63.8157 53.7224 63.9272 53.9163 64.1214C54.1102 64.3156 54.2215 64.5774 54.2268 64.852C54.2214 65.1247 54.1094 65.3843 53.9149 65.5752C53.7204 65.7661 53.459 65.8729 53.1867 65.8729Z" fill="#4F4F4F"/>
<path d="M64.8161 55.1025C64.5573 55.1038 64.3074 55.0085 64.115 54.8351C63.9227 54.6618 63.8018 54.4228 63.7759 54.165C63.3599 50.165 62.1533 42.79 58.6792 38.2483C58.5307 38.0289 58.4712 37.7609 58.5131 37.4991C58.5549 37.2373 58.6949 37.0013 58.9044 36.8393C59.114 36.6772 59.3774 36.6013 59.6409 36.627C59.9044 36.6527 60.1482 36.778 60.3227 36.9775C64.1296 41.9358 65.4193 49.7483 65.8562 53.9567C65.8744 54.231 65.7879 54.5019 65.6141 54.7147C65.4402 54.9275 65.1921 55.0661 64.9201 55.1025H64.8161Z" fill="#4F4F4F"/>
<path d="M55.4958 65.3124C63.9833 57.1041 68.6015 59.9166 69.3088 59.2916C69.5186 59.1156 69.6874 58.8957 69.8032 58.6473C69.9189 58.3989 69.9789 58.1282 69.9789 57.8541C69.9789 57.58 69.9189 57.3092 69.8032 57.0608C69.6874 56.8125 69.5186 56.5925 69.3088 56.4166C68.0049 55.3367 66.4536 54.5982 64.7942 54.2673C63.1348 53.9364 61.4194 54.0235 59.8019 54.5207C57.8378 55.0924 56.0981 56.2579 54.8208 57.8577C53.5436 59.4576 52.7912 61.4137 52.6666 63.4582C52.6587 63.7816 52.7318 64.1018 52.8792 64.3896C53.0266 64.6774 53.2436 64.9236 53.5104 65.1059C53.7772 65.2882 54.0854 65.4007 54.4067 65.4331C54.728 65.4655 55.0524 65.4169 55.3501 65.2916L55.4958 65.3124Z" fill="white"/>
<path d="M67.9362 59.3334C67.8758 58.91 67.6609 58.5241 67.3329 58.2501C66.1614 57.2997 64.7755 56.6509 63.296 56.3603C61.8165 56.0698 60.2885 56.1464 58.8454 56.5834C57.4695 56.9926 56.2105 57.7236 55.1724 58.7161C54.1343 59.7087 53.3468 60.9343 52.875 62.2918C52.7978 62.6982 52.7422 63.1085 52.7086 63.5209C52.7007 63.8443 52.7738 64.1645 52.9212 64.4523C53.0686 64.7401 53.2856 64.9863 53.5524 65.1686C53.8192 65.3509 54.1273 65.4634 54.4487 65.4958C54.77 65.5282 55.0944 65.4796 55.3921 65.3543C61.7578 59.2501 65.8975 59.2084 67.9362 59.3334Z" fill="#F4A266"/>
<path d="M54.643 66.5415C54.0228 66.5402 53.4187 66.3434 52.9164 65.979C52.5115 65.6997 52.1844 65.3217 51.966 64.8806C51.7476 64.4395 51.6451 63.95 51.6682 63.4582C51.8146 61.2017 52.6492 59.0447 54.0593 57.2787C55.4693 55.5126 57.3868 54.2227 59.5525 53.5832C61.3246 53.0566 63.1983 52.9711 65.0109 53.3342C66.8235 53.6972 68.5202 54.4978 69.9538 55.6665C70.2856 55.9334 70.5558 56.2688 70.7461 56.65C70.9364 57.0311 71.0423 57.4489 71.0564 57.8748C71.061 58.2977 70.9762 58.7168 70.8077 59.1045C70.6392 59.4923 70.3908 59.84 70.0786 60.1248C69.8181 60.3064 69.5219 60.4301 69.2097 60.4876C68.8976 60.5451 68.5768 60.535 68.2688 60.4582C66.563 60.3332 62.5897 60.0415 56.2656 66.1248C56.1754 66.213 56.0696 66.2837 55.9536 66.3332C55.5367 66.4959 55.0897 66.567 54.643 66.5415ZM62.7977 55.1873C61.9037 55.1862 61.0142 55.3125 60.1557 55.5623C58.3985 56.0786 56.8418 57.1226 55.6959 58.5533C54.5501 59.984 53.8704 61.7324 53.7485 63.5623C53.7425 63.7037 53.7717 63.8443 53.8335 63.9716C53.8952 64.0989 53.9875 64.2088 54.1021 64.2915C54.219 64.3727 54.3528 64.4262 54.4934 64.4478C54.634 64.4695 54.7776 64.4588 54.9135 64.4165C61.7992 57.8332 66.3966 58.1665 68.3728 58.3123H68.7681C68.8622 58.1702 68.9128 58.0037 68.9137 57.8332C68.9063 57.7082 68.8729 57.5862 68.8156 57.4749C68.7583 57.3637 68.6783 57.2657 68.5808 57.1873C66.9352 55.8835 64.896 55.1783 62.7977 55.1873Z" fill="#4F4F4F"/>
<path d="M53.5615 33.9789C53.5615 35.6455 56.0787 37.083 59.5527 37.5205C60.1537 37.617 60.7684 37.472 61.2631 37.1169C61.7579 36.7619 62.0927 36.2256 62.1947 35.6247C62.2783 35.0801 62.32 34.5299 62.3195 33.9789C62.3209 33.4278 62.2791 32.8775 62.1947 32.333C62.0925 31.7308 61.7585 31.1927 61.2645 30.8343C60.7706 30.476 60.156 30.3259 59.5527 30.4164C56.1203 30.8747 53.5615 32.2914 53.5615 33.9789Z" fill="white"/>
<path d="M58.6994 33.3541C57.0007 33.5034 55.3648 34.0686 53.9355 34.9999C55.4199 36.5489 57.4512 37.4539 59.5939 37.5208C59.928 37.5698 60.2689 37.5449 60.5924 37.4477C60.9159 37.3505 61.2141 37.1834 61.4661 36.9583C61.466 36.4073 61.4243 35.8571 61.3413 35.3124C61.2438 34.705 60.9127 34.16 60.4189 33.794C59.9251 33.428 59.3079 33.2701 58.6994 33.3541Z" fill="#F4A266"/>
<path d="M59.9059 38.5813H59.4482C55.2877 38.0396 52.5625 36.2271 52.5625 33.998C52.5625 31.7688 55.2669 29.9563 59.4482 29.3938C60.3268 29.2676 61.2198 29.4914 61.9355 30.0173C62.6512 30.5431 63.1324 31.3291 63.2759 32.2063C63.3603 32.7997 63.4021 33.3985 63.4007 33.998C63.4013 34.5974 63.3596 35.1961 63.2759 35.7896C63.1414 36.5822 62.7272 37.3 62.1087 37.8124C61.4901 38.3248 60.7084 38.5976 59.9059 38.5813ZM59.9059 31.4355H59.8018C56.6606 31.8521 54.726 33.0813 54.726 33.9771C54.726 34.873 56.6606 36.0605 59.8018 36.498C60.1347 36.5537 60.4762 36.4786 60.7552 36.2885C61.0343 36.0983 61.2293 35.8077 61.2996 35.4771C61.3653 34.9798 61.4001 34.4788 61.4037 33.9771C61.4015 33.4754 61.3668 32.9743 61.2996 32.4771C61.2389 32.1607 61.0623 31.8784 60.8044 31.6856C60.5465 31.4929 60.2261 31.4037 59.9059 31.4355Z" fill="#4F4F4F"/>
<path d="M60.2396 38.5586C60.019 38.5647 59.8024 38.4989 59.6224 38.3712C59.4423 38.2435 59.3085 38.0607 59.241 37.8503C58.5421 35.3356 58.5421 32.6775 59.241 30.1628C59.3006 29.921 59.4499 29.7109 59.6586 29.5755C59.8673 29.44 60.1197 29.3893 60.3644 29.4336C61.0879 29.5158 61.7646 29.8334 62.2906 30.3376C62.8167 30.8419 63.1631 31.505 63.2768 32.2253C63.3612 32.8187 63.4029 33.4175 63.4016 34.0169C63.4022 34.6164 63.3604 35.2151 63.2768 35.8086C63.1622 36.5265 62.815 37.1868 62.2887 37.6875C61.7624 38.1882 61.0862 38.5017 60.3644 38.5794L60.2396 38.5586ZM60.9677 31.9128C60.7403 33.2923 60.7403 34.6999 60.9677 36.0794C61.1063 35.9195 61.1997 35.7252 61.2381 35.5169C61.3038 35.0196 61.3385 34.5186 61.3421 34.0169C61.34 33.5152 61.3052 33.0142 61.2381 32.5169C61.2093 32.2933 61.1152 32.0831 60.9677 31.9128Z" fill="#4F4F4F"/>
<path d="M42.369 46.9961H33.3822C31.8611 46.9906 30.4039 46.383 29.3283 45.3059C28.2528 44.2287 27.6461 42.7694 27.6406 41.2461V38.6836C27.6461 37.1603 28.2528 35.7009 29.3283 34.6238C30.4039 33.5466 31.8611 32.9391 33.3822 32.9336H37.6467C39.1714 32.9336 40.6339 33.5387 41.714 34.6165C42.7941 35.6942 43.4036 37.1567 43.4091 38.6836V45.9544C43.4091 46.2307 43.2995 46.4956 43.1044 46.691C42.9094 46.8863 42.6448 46.9961 42.369 46.9961ZM33.3822 35.0169C32.4111 35.0169 31.4799 35.4032 30.7933 36.0909C30.1066 36.7785 29.7209 37.7111 29.7209 38.6836V41.2461C29.7209 42.2186 30.1066 43.1512 30.7933 43.8388C31.4799 44.5265 32.4111 44.9128 33.3822 44.9128H41.3288V38.6628C41.3261 38.1812 41.2287 37.705 41.0422 37.2612C40.8557 36.8173 40.5837 36.4147 40.2418 36.0761C39.8998 35.7376 39.4947 35.4698 39.0494 35.288C38.6042 35.1063 38.1275 35.0142 37.6467 35.0169H33.3822Z" fill="#4F4F4F"/>
<path d="M42.369 46.9961H33.3822C31.8611 46.9906 30.4039 46.383 29.3283 45.3059C28.2528 44.2287 27.6461 42.7694 27.6406 41.2461V38.6836C27.6461 37.1603 28.2528 35.7009 29.3283 34.6238C30.4039 33.5466 31.8611 32.9391 33.3822 32.9336H37.6467C39.1714 32.9336 40.6339 33.5387 41.714 34.6165C42.7941 35.6942 43.4036 37.1567 43.4091 38.6836V45.9544C43.4091 46.2307 43.2995 46.4956 43.1044 46.691C42.9094 46.8863 42.6448 46.9961 42.369 46.9961ZM33.3822 35.0169C32.4111 35.0169 31.4799 35.4032 30.7933 36.0909C30.1066 36.7785 29.7209 37.7111 29.7209 38.6836V41.2461C29.7209 42.2186 30.1066 43.1512 30.7933 43.8388C31.4799 44.5265 32.4111 44.9128 33.3822 44.9128H41.3288V38.6628C41.3261 38.1812 41.2287 37.705 41.0422 37.2612C40.8557 36.8173 40.5837 36.4147 40.2418 36.0761C39.8998 35.7376 39.4947 35.4698 39.0494 35.288C38.6042 35.1063 38.1275 35.0142 37.6467 35.0169H33.3822Z" fill="#4F4F4F"/>
<path d="M39.8314 45.5195V39.6654C39.8314 38.9305 39.5399 38.2257 39.021 37.7061C38.5021 37.1865 37.7984 36.8945 37.0646 36.8945H31.9679C31.2358 36.9 30.5352 37.1937 30.0176 37.7121C29.4999 38.2306 29.2066 38.9322 29.2012 39.6654V43.5404C29.2171 43.9505 29.3267 44.3515 29.5214 44.7126C29.7161 45.0737 29.9909 45.3854 30.3245 45.6237C30.7304 45.7755 31.1602 45.8532 31.5935 45.8529H39.6857C39.7595 45.7546 39.8093 45.6405 39.8314 45.5195Z" fill="#ED5A6B"/>
<path d="M42.369 46.9961H33.3822C31.8611 46.9906 30.4039 46.383 29.3283 45.3059C28.2528 44.2287 27.6461 42.7694 27.6406 41.2461V38.6836C27.6461 37.1603 28.2528 35.7009 29.3283 34.6238C30.4039 33.5466 31.8611 32.9391 33.3822 32.9336H37.6467C39.1714 32.9336 40.6339 33.5387 41.714 34.6165C42.7941 35.6942 43.4036 37.1567 43.4091 38.6836V45.9544C43.4091 46.2307 43.2995 46.4956 43.1044 46.691C42.9094 46.8863 42.6448 46.9961 42.369 46.9961ZM33.3822 35.0169C32.4111 35.0169 31.4799 35.4032 30.7933 36.0909C30.1066 36.7785 29.7209 37.7111 29.7209 38.6836V41.2461C29.7209 42.2186 30.1066 43.1512 30.7933 43.8388C31.4799 44.5265 32.4111 44.9128 33.3822 44.9128H41.3288V38.6628C41.3261 38.1812 41.2287 37.705 41.0422 37.2612C40.8557 36.8173 40.5837 36.4147 40.2418 36.0761C39.8998 35.7376 39.4947 35.4698 39.0494 35.288C38.6042 35.1063 38.1275 35.0142 37.6467 35.0169H33.3822Z" fill="#4F4F4F"/>
</svg>
