<svg width="96" height="96" viewBox="0 0 96 96" fill="none" xmlns="http://www.w3.org/2000/svg">
<circle cx="47.918" cy="48.3438" r="47.5" fill="#EEF4FC"/>
<path d="M53.8827 39.2772C54.0025 39.1631 54.1475 39.0788 54.3059 39.0311C54.4643 38.9834 54.6317 38.9737 54.7946 39.0027C54.9575 39.0317 55.1112 39.0986 55.2434 39.198C55.3756 39.2975 55.4826 39.4266 55.5556 39.5751C58.5806 46.4501 60.4598 54.8147 55.9223 62.0105C54.9083 63.5426 53.5976 64.8559 52.0676 65.873C50.5376 66.89 48.8192 67.5901 47.0141 67.9319C45.2089 68.2737 43.3536 68.2503 41.5576 67.863C39.7617 67.4758 38.0616 66.7325 36.5577 65.6772C34.9115 64.3483 33.6441 62.6095 32.8828 60.6356C32.1214 58.6617 31.893 56.5222 32.2205 54.4321C32.5479 52.3419 33.4197 50.3748 34.7482 48.7283C36.0768 47.0818 37.8152 45.814 39.789 45.0522C46.114 42.7605 49.391 43.6543 53.8827 39.2772Z" fill="#BCD9FA"/>
<path d="M31.0117 69.6883C30.7078 69.7369 30.3971 69.6628 30.1478 69.4823C29.8985 69.3018 29.7312 69.0297 29.6825 68.7258C29.6339 68.4219 29.708 68.1111 29.8885 67.8619C30.069 67.6126 30.3412 67.4452 30.645 67.3966C37.52 65.1049 53.5617 49.0633 53.9513 38.8654C53.9665 38.5615 54.1018 38.2761 54.3274 38.0719C54.553 37.8678 54.8505 37.7616 55.1544 37.7768C55.4583 37.792 55.7437 37.9273 55.9479 38.1529C56.152 38.3786 56.2582 38.6761 56.243 38.9799C55.7159 49.98 39.6971 66.7779 31.3784 69.5508C31.2661 69.6196 31.1416 69.6663 31.0117 69.6883Z" fill="#696969"/>
<path d="M66.2568 64.5321C67.0415 64.5321 67.6776 63.896 67.6776 63.1113C67.6776 62.3266 67.0415 61.6904 66.2568 61.6904C65.4721 61.6904 64.8359 62.3266 64.8359 63.1113C64.8359 63.896 65.4721 64.5321 66.2568 64.5321Z" fill="#BCD9FA"/>
<path d="M44.0971 68.8856C40.5089 68.9615 36.9988 67.8318 34.1284 65.6773C32.205 64.0845 30.6706 62.0737 29.642 59.7981C28.6134 57.5225 28.1178 55.0422 28.193 52.546C28.2113 50.139 28.7805 47.7681 29.8571 45.6151C30.9336 43.4621 32.4887 41.5841 34.4034 40.1252C34.6486 39.9487 34.9526 39.8739 35.2516 39.9166C35.5507 39.9594 35.8216 40.1163 36.0076 40.3544C36.1899 40.5975 36.2682 40.9031 36.2252 41.2039C36.1822 41.5048 36.0215 41.7762 35.7784 41.9585C34.1392 43.211 32.8094 44.8232 31.8916 46.6707C30.9738 48.5183 30.4924 50.5519 30.4846 52.6148C30.4187 54.763 30.8448 56.8978 31.7306 58.856C32.6163 60.8142 33.9382 62.5438 35.5951 63.9127C37.1848 65.0626 38.9928 65.8754 40.9081 66.301C42.8234 66.7266 44.8055 66.7561 46.7326 66.3877C48.9695 66.033 51.1037 65.2005 52.99 63.9469C54.8764 62.6934 56.4704 61.0481 57.6638 59.1231C62.8888 50.8502 60.8492 39.1169 56.9534 30.2481C53.4471 35.1981 48.9096 36.7335 42.8596 38.819L41.6909 39.2315C41.4052 39.3265 41.0935 39.3053 40.8233 39.1723C40.5532 39.0394 40.3462 38.8054 40.2471 38.521C40.1513 38.2322 40.1719 37.9174 40.3046 37.6435C40.4372 37.3696 40.6715 37.1582 40.9576 37.0544L42.1263 36.6419C48.6117 34.3502 52.8971 32.9523 56.1284 27.2919C56.2302 27.1101 56.3806 26.9603 56.5627 26.8591C56.7448 26.7579 56.9515 26.7094 57.1596 26.719C57.3665 26.7269 57.5674 26.7908 57.7409 26.9037C57.9145 27.0167 58.0541 27.1746 58.1451 27.3606C62.8659 36.9627 65.7076 50.6669 59.6117 60.3377C58.2444 62.5403 56.4194 64.423 54.2605 65.8583C52.1016 67.2937 49.6593 68.2479 47.0992 68.6565C46.1063 68.8133 45.1024 68.8899 44.0971 68.8856Z" fill="#696969"/>
<path d="M33.8766 33.5931C35.1423 33.5931 36.1683 32.5671 36.1683 31.3014C36.1683 30.0358 35.1423 29.0098 33.8766 29.0098C32.611 29.0098 31.585 30.0358 31.585 31.3014C31.585 32.5671 32.611 33.5931 33.8766 33.5931Z" fill="#BCD9FA"/>
<path d="M71.8714 37.8106C71.5691 37.8063 71.2808 37.6828 71.0693 37.4669L67.4484 33.8231C67.2357 33.6104 67.1162 33.3219 67.1162 33.021C67.1162 32.7202 67.2357 32.4317 67.4484 32.219C67.6612 32.0062 67.9497 31.8867 68.2505 31.8867C68.5514 31.8867 68.8399 32.0062 69.0526 32.219L72.6964 35.8856C72.9078 36.1037 73.026 36.3955 73.026 36.6992C73.026 37.0029 72.9078 37.2946 72.6964 37.5127C72.4705 37.7153 72.1746 37.8222 71.8714 37.8106Z" fill="#BCD9FA"/>
<path d="M68.2504 37.8105C68.1001 37.8123 67.9511 37.7827 67.813 37.7235C67.6748 37.6643 67.5506 37.5768 67.4483 37.4667C67.3409 37.3602 67.2557 37.2335 67.1975 37.0939C67.1393 36.9542 67.1094 36.8045 67.1094 36.6532C67.1094 36.5019 67.1393 36.3522 67.1975 36.2125C67.2557 36.0729 67.3409 35.9462 67.4483 35.8397L71.0691 32.2188C71.1757 32.1114 71.3024 32.0262 71.442 31.968C71.5817 31.9098 71.7314 31.8799 71.8827 31.8799C72.034 31.8799 72.1837 31.9098 72.3233 31.968C72.463 32.0262 72.5897 32.1114 72.6962 32.2188C72.9062 32.433 73.0238 32.721 73.0238 33.0209C73.0238 33.3208 72.9062 33.6088 72.6962 33.823L69.0525 37.4667C68.9502 37.5768 68.8259 37.6643 68.6878 37.7235C68.5497 37.7827 68.4007 37.8123 68.2504 37.8105Z" fill="#BCD9FA"/>
</svg>
