<svg width="96" height="96" viewBox="0 0 96 96" fill="none" xmlns="http://www.w3.org/2000/svg">
<circle cx="47.918" cy="48.3438" r="47.5" fill="#EBF3F3"/>
<path d="M40.821 48.1445C42.8044 47.2609 44.9515 46.8044 47.1229 46.8047C54.7398 46.8047 60.9176 52.263 60.9176 58.9619C60.9176 58.9619 60.7439 64.4451 58.6847 66.6036C54.5909 70.8959 39.6549 70.8959 35.5611 66.6036C33.5018 64.4451 33.3281 58.9619 33.3281 58.9619C33.3422 56.5172 34.1619 54.1452 35.6603 52.2134" fill="white"/>
<path d="M60.9167 58.9592C60.8585 56.7824 60.2059 54.663 59.0294 52.8305C57.853 50.9981 56.1976 49.5225 54.2426 48.5635H53.4735C45.8566 48.5635 39.6787 53.997 39.6787 60.7207C39.6787 60.7207 39.8524 66.2039 41.9117 68.3376C42.4365 68.8863 43.0592 69.3323 43.7477 69.6526C49.4541 70.2976 56.153 69.2804 58.6341 66.6257C60.743 64.4423 60.9167 58.9592 60.9167 58.9592Z" fill="#7ACDCD"/>
<path d="M47.1214 71.0705C41.4646 71.0705 36.8002 69.7307 34.7161 67.473C32.632 65.2152 32.235 59.6328 32.235 59.0125C32.2079 56.286 33.0799 53.6265 34.7161 51.4452C34.9168 51.182 35.2138 51.0093 35.5418 50.9651C35.8698 50.9209 36.202 51.0088 36.4652 51.2095C36.7284 51.4102 36.9011 51.7073 36.9453 52.0353C36.9895 52.3633 36.9016 52.6955 36.7009 52.9587C35.3668 54.6775 34.6345 56.7871 34.6168 58.9629C34.6144 61.3584 35.2664 63.709 36.5024 65.761C38.1399 67.473 42.3329 68.5894 47.171 68.5894C52.0091 68.5894 56.2021 67.473 57.8396 65.761C59.0788 63.7013 59.7309 61.3418 59.7252 58.9381C59.6756 52.9091 54.0436 47.9469 47.1214 47.9469C45.1275 47.9386 43.1554 48.3618 41.3405 49.1875C41.041 49.3217 40.7006 49.3318 40.3936 49.2156C40.0867 49.0993 39.8384 48.8662 39.703 48.5672C39.6323 48.421 39.5917 48.262 39.5835 48.0998C39.5752 47.9376 39.5996 47.7754 39.6551 47.6228C39.7106 47.4701 39.7961 47.3301 39.9066 47.2111C40.0171 47.0921 40.1504 46.9964 40.2985 46.9297C42.4419 45.9594 44.7686 45.4602 47.1214 45.4659C55.4082 45.4659 62.1567 51.4949 62.1567 58.8636C62.1567 59.5335 61.8838 64.9423 59.6756 67.3737C57.4675 69.8052 52.7782 71.0705 47.1214 71.0705Z" fill="#696969"/>
<path d="M30.3255 32.5026C30.9583 32.5026 31.4714 31.9896 31.4714 31.3568C31.4714 30.7239 30.9583 30.2109 30.3255 30.2109C29.6927 30.2109 29.1797 30.7239 29.1797 31.3568C29.1797 31.9896 29.6927 32.5026 30.3255 32.5026Z" fill="#7ACDCD"/>
<path d="M30.5581 69.7646C31.52 69.7646 32.2997 68.9848 32.2997 68.0229C32.2997 67.061 31.52 66.2812 30.5581 66.2812C29.5962 66.2812 28.8164 67.061 28.8164 68.0229C28.8164 68.9848 29.5962 69.7646 30.5581 69.7646Z" fill="#7ACDCD"/>
<path d="M65.859 33.374C65.5618 33.3668 65.277 33.2529 65.0569 33.0531L61.4132 29.4094C61.1974 29.1936 61.0762 28.901 61.0762 28.5958C61.0762 28.2907 61.1974 27.9981 61.4132 27.7823C61.6289 27.5665 61.9216 27.4453 62.2267 27.4453C62.5318 27.4453 62.8245 27.5665 63.0402 27.7823L66.684 31.426C66.8954 31.6441 67.0136 31.9359 67.0136 32.2396C67.0136 32.5433 66.8954 32.8351 66.684 33.0531C66.458 33.2581 66.1641 33.3724 65.859 33.374Z" fill="#7ACDCD"/>
<path d="M62.2376 33.374C61.9325 33.3724 61.6387 33.2581 61.4126 33.0531C61.2012 32.8351 61.083 32.5433 61.083 32.2396C61.083 31.9359 61.2012 31.6441 61.4126 31.426L65.0564 27.7823C65.1632 27.6755 65.2901 27.5907 65.4296 27.5329C65.5692 27.4751 65.7188 27.4453 65.8699 27.4453C66.021 27.4453 66.1706 27.4751 66.3102 27.5329C66.4498 27.5907 66.5766 27.6755 66.6835 27.7823C66.7903 27.8891 66.875 28.016 66.9329 28.1555C66.9907 28.2951 67.0204 28.4447 67.0204 28.5958C67.0204 28.7469 66.9907 28.8965 66.9329 29.0361C66.875 29.1757 66.7903 29.3025 66.6835 29.4094L63.0397 33.0531C62.8219 33.2566 62.5357 33.3711 62.2376 33.374Z" fill="#7ACDCD"/>
<path d="M54.3916 34.771C54.6434 36.1922 54.3591 37.6563 53.5938 38.8799C52.8284 40.1036 51.6363 40.9999 50.2482 41.3954C47.0229 42.6856 43.6486 41.7676 42.805 39.3858C41.9615 37.0039 43.8967 36.3837 47.1221 35.1183C50.3475 33.853 52.8534 29.5607 54.3916 34.771Z" fill="#7ACDCD"/>
<path d="M47.1222 42.9847C45.4047 42.9847 43.7258 42.4754 42.2978 41.5212C40.8698 40.567 39.7567 39.2108 39.0995 37.6241C38.4422 36.0373 38.2703 34.2913 38.6053 32.6068C38.9404 30.9223 39.7674 29.375 40.9819 28.1606C42.1963 26.9462 43.7436 26.1191 45.4281 25.784C47.1126 25.449 48.8586 25.621 50.4454 26.2782C52.0321 26.9355 53.3883 28.0485 54.3425 29.4765C55.2967 30.9045 55.806 32.5835 55.806 34.3009C55.806 36.604 54.8911 38.8128 53.2626 40.4413C51.634 42.0698 49.4253 42.9847 47.1222 42.9847ZM47.1222 28.0983C45.8955 28.0983 44.6962 28.462 43.6762 29.1436C42.6562 29.8252 41.8612 30.7939 41.3917 31.9273C40.9222 33.0607 40.7994 34.3078 41.0387 35.511C41.2781 36.7142 41.8688 37.8194 42.7363 38.6869C43.6037 39.5543 44.7089 40.1451 45.9121 40.3844C47.1153 40.6238 48.3625 40.5009 49.4959 40.0315C50.6293 39.562 51.598 38.767 52.2796 37.747C52.9611 36.7269 53.3249 35.5277 53.3249 34.3009C53.3249 32.6559 52.6714 31.0782 51.5082 29.915C50.345 28.7518 48.7673 28.0983 47.1222 28.0983Z" fill="#696969"/>
</svg>
